<svg xmlns="http://www.w3.org/2000/svg" xmlns:xlink="http://www.w3.org/1999/xlink" width="34" height="34" viewBox="0 0 34 34"><defs><circle id="prefix__a" cx="17" cy="17" r="16"/></defs><g fill="none" fill-rule="evenodd" opacity=".498"><mask id="prefix__b" fill="#fff"><use xlink:href="#prefix__a"/></mask><use stroke="#FFF" xlink:href="#prefix__a"/><path fill="#FFF" fill-rule="nonzero" d="M19.667 11C21.507 11 23 12.492 23 14.333v5.334C23 21.507 21.508 23 19.667 23h-5.334C12.493 23 11 21.508 11 19.667v-5.334C11 12.493 12.492 11 14.333 11h5.334zm0 1.333h-5.334c-1.104 0-2 .896-2 2v5.334c0 1.104.896 2 2 2h5.334c1.104 0 2-.896 2-2v-5.334c0-1.104-.896-2-2-2zm-2.233 1.874c1.22.181 2.178 1.14 2.359 2.36.177 1.194-.432 2.368-1.511 2.911-1.08.543-2.385.333-3.239-.521-.854-.854-1.064-2.16-.521-3.239.543-1.079 1.717-1.688 2.912-1.51zm-1.721 2.11c-.284.566-.174 1.25.273 1.697.447.447 1.131.557 1.696.273.566-.284.885-.9.792-1.525-.095-.64-.597-1.141-1.236-1.236-.626-.093-1.24.226-1.525.792z" mask="url(#prefix__b)"/></g></svg>