<svg xmlns="http://www.w3.org/2000/svg" width="144" height="24" viewBox="0 0 144 24"><g fill="#FFF" fill-rule="evenodd"><path fill-rule="nonzero" d="M35.462 18.49L35.462 18.808 28.154 18.808 28.154 3.876 29.272 3.876 29.272 18.49zM37.31 13.278v.231c0 1.025.168 1.926.502 2.704.291.725.783 1.352 1.419 1.807.62.427 1.357.65 2.11.637.648-.005 1.29-.12 1.9-.34.6-.202 1.153-.519 1.63-.934l.115.154c-.497.481-1.092.848-1.746 1.076-.685.257-1.411.39-2.143.393-.904.019-1.794-.219-2.568-.685-.749-.466-1.349-1.136-1.73-1.93-.412-.83-.618-1.791-.618-2.885 0-1.094.203-2.053.608-2.878.375-.796.973-1.467 1.72-1.93.78-.467 1.675-.705 2.583-.686.833-.015 1.653.21 2.363.646.7.447 1.254 1.086 1.596 1.842.376.79.564 1.705.564 2.742v.039l-8.304-.003zm1.163-3.675c-.678.847-1.059 1.965-1.143 3.355h7.154c.016-.825-.126-1.645-.417-2.416-.238-.64-.649-1.203-1.187-1.624-.515-.387-1.145-.59-1.79-.577-1.023-.021-1.996.448-2.617 1.262zM54.254 18.18c-.73.55-1.684.826-2.863.826-.778.008-1.55-.125-2.281-.393-.65-.232-1.242-.606-1.73-1.094l.135-.186c.479.426 1.035.755 1.639.968.641.245 1.322.372 2.009.374.914 0 1.664-.22 2.25-.661.588-.44.88-1.005.88-1.692.017-.431-.132-.853-.418-1.177-.292-.313-.645-.563-1.038-.733-.548-.236-1.107-.442-1.677-.618-.62-.2-1.229-.433-1.823-.7-.446-.205-.842-.503-1.163-.875-.326-.396-.495-.897-.475-1.41-.026-.81.36-1.58 1.026-2.042.683-.5 1.527-.749 2.532-.749.67-.007 1.334.119 1.955.37.572.23 1.089.578 1.517 1.02l-.115.146c-.423-.378-.913-.675-1.444-.875-.537-.21-1.11-.319-1.687-.32-.784 0-1.436.196-1.954.588-.502.359-.794.943-.778 1.56-.015.416.136.822.418 1.128.29.307.64.553 1.026.725.538.235 1.088.44 1.648.617.628.198 1.244.43 1.847.693.452.202.853.504 1.172.883.327.409.497.922.476 1.445.023.862-.383 1.68-1.084 2.182zM74.135 3.876L68.106 19.006 67.846 19.006 61.688 3.876 62.865 3.876 68.349 17.44 73.717 3.876zM75.817 13.278v.231c-.019.926.152 1.846.5 2.704.292.723.782 1.349 1.415 1.804.62.43 1.36.653 2.114.64.649-.005 1.292-.12 1.902-.34.599-.202 1.152-.519 1.628-.934l.115.154c-.496.481-1.092.848-1.744 1.076-.686.257-1.412.39-2.144.393-.904.019-1.794-.219-2.568-.685-.749-.466-1.35-1.135-1.73-1.93-.412-.83-.618-1.791-.618-2.885 0-1.094.203-2.053.607-2.878.376-.796.974-1.467 1.722-1.93.779-.467 1.674-.705 2.582-.686.833-.015 1.653.21 2.362.646.7.446 1.256 1.086 1.598 1.842.39.86.582 1.797.563 2.742v.039l-8.304-.003zm1.162-3.675c-.677.847-1.058 1.965-1.142 3.355h7.153c.016-.825-.126-1.645-.418-2.416-.237-.641-.648-1.203-1.187-1.624-.515-.386-1.144-.59-1.788-.577-1.024-.02-1.997.448-2.618 1.262zM95.43 3.283v15.525h-.894l-.116-2.645c-.28.83-.81 1.552-1.518 2.068-.68.506-1.505.778-2.353.773-.825.015-1.635-.224-2.319-.686-.692-.483-1.234-1.152-1.561-1.93-.37-.83-.554-1.79-.554-2.885 0-1.093.185-2.053.554-2.877.327-.778.869-1.448 1.561-1.93.684-.462 1.494-.701 2.32-.686.823-.008 1.628.246 2.299.725.694.496 1.221 1.193 1.511 1.996V3.283h1.07zm-2.508 14.493c.667-.589 1.164-1.346 1.438-2.192v-4.16c-.268-.85-.764-1.608-1.434-2.193-.65-.558-1.362-.836-2.133-.836-.678-.01-1.338.215-1.868.637-.539.425-.953 1.026-1.244 1.804-.306.857-.454 1.763-.439 2.673-.017.91.132 1.814.439 2.67.291.77.706 1.368 1.244 1.794.529.425 1.19.652 1.868.642.77.002 1.48-.278 2.129-.839zM99.447 13.278v.231c-.02.926.151 1.846.5 2.704.29.723.782 1.35 1.415 1.804.62.428 1.358.65 2.11.637.648-.005 1.291-.12 1.9-.34.6-.201 1.154-.518 1.63-.934l.115.155c-.496.481-1.092.848-1.745 1.075-.686.258-1.412.391-2.144.394-.904.018-1.794-.22-2.568-.686-.748-.465-1.349-1.135-1.73-1.93-.411-.83-.617-1.79-.618-2.885 0-1.093.202-2.053.608-2.877.375-.797.973-1.467 1.722-1.93.779-.468 1.673-.705 2.581-.686.833-.015 1.653.21 2.363.646.704.445 1.262 1.086 1.606 1.844.376.79.565 1.705.565 2.742v.039l-8.31-.003zm1.161-3.675c-.677.847-1.058 1.965-1.142 3.355h7.154c.016-.825-.126-1.645-.418-2.416-.237-.641-.648-1.203-1.186-1.624-.515-.387-1.145-.59-1.79-.577-1.024-.021-1.996.448-2.618 1.262zM115.9 18.15c-.29.28-.636.495-1.016.628-.403.151-.83.23-1.26.23-.823 0-1.49-.264-1.999-.792-.509-.529-.763-1.234-.762-2.115V8.538h-1.994v-.32h1.994l.874-3.385h.195v3.385h3.705v.32h-3.705v7.692c0 .732.193 1.32.577 1.764.377.44.934.686 1.513.667.334 0 .665-.061.977-.18.293-.102.56-.266.783-.481l.117.15zM123.367 18.15c-.289.28-.635.495-1.015.628-.403.151-.83.23-1.26.23-.824 0-1.49-.264-1.998-.792-.508-.529-.763-1.234-.764-2.115V8.538h-1.993v-.32h1.993l.875-3.385h.195v3.385h3.705v.32H119.4v7.692c0 .732.192 1.32.577 1.764.376.44.932.686 1.511.667.334 0 .666-.061.978-.18.292-.102.559-.266.782-.481l.119.15zM125.497 13.278v.231c-.019.926.152 1.846.5 2.704.291.723.782 1.35 1.415 1.804.62.428 1.358.65 2.11.637.65-.005 1.292-.12 1.902-.34.6-.201 1.152-.518 1.628-.934l.116.155c-.497.481-1.092.848-1.745 1.075-.686.258-1.412.391-2.145.394-.903.018-1.793-.22-2.567-.686-.75-.465-1.35-1.135-1.731-1.93-.412-.83-.618-1.79-.618-2.885-.001-1.093.201-2.053.608-2.877.375-.796.973-1.467 1.721-1.93.779-.468 1.674-.705 2.581-.686.834-.015 1.654.21 2.363.646.702.446 1.259 1.087 1.602 1.844.376.79.564 1.705.564 2.742v.039l-8.304-.003zm1.162-3.675c-.678.847-1.059 1.965-1.142 3.355h7.153c.017-.825-.125-1.645-.417-2.416-.238-.641-.648-1.203-1.186-1.624-.516-.387-1.146-.59-1.79-.577-1.024-.021-1.997.448-2.618 1.262zM142.441 18.18c-.73.55-1.684.826-2.864.826-.777.008-1.55-.125-2.28-.393-.65-.232-1.242-.606-1.73-1.094l.136-.186c.478.426 1.034.755 1.638.968.641.245 1.322.372 2.008.374.914 0 1.664-.22 2.251-.661.587-.44.88-1.005.88-1.692.018-.431-.132-.853-.418-1.177-.292-.314-.646-.563-1.039-.733-.548-.235-1.108-.441-1.678-.618-.62-.2-1.228-.433-1.823-.7-.445-.205-.841-.503-1.162-.875-.326-.395-.496-.897-.476-1.41-.026-.81.36-1.58 1.026-2.042.683-.5 1.53-.749 2.538-.749.67-.007 1.334.119 1.955.37.571.23 1.088.578 1.517 1.02l-.115.146c-.424-.379-.913-.675-1.445-.875-.538-.21-1.11-.32-1.687-.32-.785 0-1.436.196-1.955.588-.501.359-.792.943-.777 1.56-.015.417.136.822.419 1.128.29.307.639.554 1.025.725.538.235 1.088.44 1.648.617.63.198 1.248.43 1.853.693.452.202.853.504 1.171.883.328.409.497.922.477 1.445.02.864-.389 1.681-1.093 2.182zM9.313 23.972c-.068.004-.135-.013-.192-.05-.073-.07-.116-.166-.121-.268-.006-.027-.01-.052-.017-.076-.198-.732-.627-1.327-1.316-1.821-.707-.508-1.486-.833-2.357-1.178l-.432-.169c-.474-.182-.963-.371-1.43-.594-1.078-.514-1.902-1.17-2.517-2.002-.758-.996-1.07-2.261-.864-3.496.044-.29.115-.577.176-.856.03-.126.06-.252.088-.379l.016-.071.187-.037.103.149c.044.061.086.123.13.186.401.612.892 1.16 1.455 1.629.445.359.824.55 1.23.622.255.045.292.082.333.336v.049c.048.194-.06.27-.185.323-.035.016-.071.03-.108.038l-.034.01c-.215.08-.346.16-.376.33.394.554.963.96 1.615 1.153.804.269 1.67.29 2.485.06.609-.168.939-.518 1.01-1.07.005-.095.008-.206.008-.332v-.025V7.817H6.05c-.233.643-.842 1.072-1.526 1.075-.318-.001-.63-.091-.9-.26-.56-.359-.846-1.023-.719-1.677.122-.67.656-1.188 1.328-1.292.422-.078.856.021 1.203.274.17.115.316.262.431.432l.015.01h2.315v-.462-1.363c0-.05-.006-.056-.04-.077-.852-.503-1.306-1.48-1.141-2.456C7.18 1.045 7.93.271 8.9.076c.642-.132 1.311.01 1.846.389.534.375.886.955.974 1.602.131 1.016-.25 1.824-1.137 2.403-.046.031-.05.043-.05.085v1.826h2.29c.04 0 .05-.007.066-.024.273-.403.713-.662 1.198-.703h.048c.478-.037.947.14 1.281.484.335.343.5.817.45 1.294-.08.692-.462 1.172-1.114 1.385-.652.212-1.22.047-1.702-.455-.02-.021-.038-.044-.055-.068l-.027-.036c-.102-.132-.183-.28-.24-.436h-2.183v8.66c-.003.25.017.5.06.746.104.26.307.434.638.546 1.323.446 2.539.324 3.626-.364.315-.2.585-.466.791-.778-.032-.116-.127-.208-.301-.277h-.014c-.028-.01-.063-.02-.1-.03-.114-.03-.23-.06-.27-.164-.03-.11-.03-.225 0-.335 0-.032.011-.063.015-.091l.007-.076.072-.02c.08-.024.16-.045.237-.064.157-.037.311-.084.461-.141.483-.2.924-.534 1.374-1.048.23-.265.453-.554.665-.832.094-.122.187-.244.283-.366.02-.026.04-.055.063-.09l.186-.266.063.23c.024.095.05.186.073.275.052.186.1.363.141.541.206.843.182 1.725-.07 2.555-.268.864-.773 1.615-1.543 2.285-.734.62-1.627 1.128-2.827 1.59-.728.28-1.44.577-2.116.87-.444.2-.857.461-1.228.776-.565.46-.955 1.101-1.103 1.815-.015.115-.115.198-.23.192h-.065c-.04.008-.08.011-.121.011zM.5 13.325l-.044.188c-.065.273-.132.557-.174.837-.196 1.176.102 2.381.824 3.33.591.808 1.384 1.435 2.433 1.933.462.218.945.406 1.413.589l.434.168c.885.346 1.678.682 2.406 1.205.728.522 1.19 1.16 1.402 1.943l.02.092c.005.046.018.09.038.132.053.008.108.008.161 0h.093v-.013c.158-.762.575-1.445 1.179-1.935.387-.328.818-.6 1.28-.808.68-.3 1.396-.594 2.126-.876 1.176-.453 2.051-.95 2.756-1.568.737-.645 1.22-1.359 1.477-2.183.243-.791.265-1.634.065-2.438-.04-.174-.088-.346-.138-.53 0-.017-.009-.033-.013-.05-.088.116-.174.232-.262.34-.215.282-.437.577-.676.844-.478.54-.94.892-1.454 1.106-.159.061-.321.111-.487.15l-.162.044-.006.035c-.019.065-.024.133-.015.2.04.017.08.03.123.04.044.011.088.024.125.038h.012c.27.106.416.266.448.491l.006.042-.022.034c-.226.357-.528.658-.884.884-1.143.726-2.423.856-3.817.388-.398-.134-.652-.359-.779-.687v-.02c-.048-.262-.07-.53-.067-.797V7.59h2.569l.024.08c.05.16.128.31.23.443l.03.04.037.046c.425.442.923.577 1.472.396.539-.156.923-.633.96-1.193.067-.633-.305-1.23-.902-1.447-.188-.07-.388-.099-.588-.084h-.03c-.424.036-.806.264-1.04.62l-.007.01c-.06.072-.15.112-.243.107H10.477l-.152-.01v-.692V4.56c-.006-.113.053-.22.152-.275.808-.528 1.154-1.269 1.038-2.192-.078-.584-.397-1.11-.88-1.448C10.149.302 9.542.176 8.96.299c-.88.176-1.561.877-1.711 1.763-.15.885.263 1.771 1.037 2.227.093.056.146.16.137.268v2.02l-.115.022H5.87c-.06-.004-.118-.029-.162-.07l-.02-.024c-.1-.153-.23-.286-.381-.39-.3-.216-.676-.3-1.039-.23-.58.09-1.038.537-1.142 1.114-.13.733.33 1.442 1.053 1.62.722.177 1.46-.236 1.684-.946l.023-.08h2.538v8.86c0 .132 0 .248-.01.356-.082.648-.477 1.071-1.172 1.264-.858.24-1.769.219-2.614-.064-.713-.212-1.332-.664-1.752-1.278l-.022-.033v-.038c.03-.377.364-.5.526-.558l.052-.016c.027-.007.054-.016.08-.028.021-.008.042-.02.062-.032 0 0 0-.013-.007-.03-.005-.018-.008-.035-.01-.053v-.016c-.004-.044-.013-.086-.026-.127-.04-.01-.082-.019-.124-.025-.446-.078-.857-.285-1.332-.668-.58-.482-1.085-1.047-1.5-1.676L.5 13.325z"/><path fill-rule="nonzero" d="M9.377 3.727c-.565 0-1.076-.34-1.293-.863-.216-.522-.097-1.124.303-1.524.4-.4 1.001-.52 1.524-.304.523.217.864.727.864 1.292-.002.772-.626 1.397-1.398 1.399zm0-2.573c-.648 0-1.174.526-1.174 1.174 0 .65.526 1.175 1.174 1.175.649 0 1.175-.526 1.175-1.175 0-.648-.526-1.174-1.175-1.174zM4.545 8.145c-.463 0-.839-.376-.839-.839 0-.463.376-.839.839-.839.463 0 .839.376.839.84 0 .462-.376.837-.839.838zm0-1.454c-.34 0-.615.275-.615.615 0 .34.275.615.615.615.34 0 .615-.275.615-.615 0-.34-.276-.614-.615-.614zM14.22 8.09c-.34 0-.647-.204-.777-.518-.13-.314-.059-.676.182-.916.24-.24.602-.313.916-.182.314.13.518.437.518.777-.001.463-.376.837-.839.839zm0-1.455c-.25 0-.474.15-.57.38-.095.23-.042.495.134.671.177.177.442.23.672.134.23-.095.38-.32.38-.57 0-.34-.276-.615-.616-.615z"/><path fill-rule="nonzero" d="M9.377 19.522c-.061 0-.112-.048-.115-.11v-15.8c.013-.052.059-.088.112-.088.053 0 .099.036.112.088v15.8c-.003.06-.05.106-.109.11z"/><path fill-rule="nonzero" d="M6.299 19.615c-.94.012-1.865-.227-2.682-.692-.906-.508-1.578-1.349-1.875-2.345 0-.017-.007-.032-.011-.051v-.03c-.01-.06.03-.116.089-.13.06-.01.117.03.13.09l.007.03v.028c.28.94.916 1.735 1.772 2.214.866.499 1.827.71 2.94.645.537-.013 1.067-.139 1.553-.369.653-.332 1.015-.907 1.046-1.663.004-.06.054-.107.115-.107.06.004.108.055.107.115-.008.789-.46 1.505-1.167 1.852-.453.231-.975.356-1.643.394-.127.01-.255.02-.381.02z"/><path fill-rule="nonzero" d="M12.462 19.615c-.126 0-.254 0-.382-.011-.668-.038-1.19-.163-1.642-.394-.708-.347-1.16-1.063-1.168-1.852 0-.06.047-.11.107-.115.061 0 .111.047.116.107.03.756.392 1.33 1.045 1.663.486.23 1.015.356 1.553.37 1.112.064 2.071-.147 2.937-.646.856-.48 1.492-1.275 1.772-2.216v-.024l.007-.033c-.003-.048.024-.093.068-.112.045-.02.096-.01.13.025.034.034.042.086.021.13l-.006.029c0 .02 0 .033-.009.048-.297.993-.969 1.832-1.873 2.34-.815.463-1.739.702-2.676.691z"/><path d="M9.738 22.528c-.02.014-.038.029-.057.045-.13.104-.218.25-.25.412 0 .017-.012.023-.028.022-.016-.002-.052.008-.068 0-.017-.009-.017-.04-.022-.063-.047-.169-.153-.316-.3-.414l.725-.002z"/><path fill-rule="nonzero" d="M9.518 23.653c-.031.002-.062-.01-.088-.035-.036-.042-.06-.102-.064-.167v-.027c-.06-.297-.194-.554-.378-.726-.034-.034-.048-.094-.035-.15.012-.054.049-.09.09-.09h1.006c.041-.001.078.036.09.09.013.055 0 .113-.033.148l-.075.084c-.164.18-.278.435-.32.72-.01.093-.071.158-.138.149h-.055v.004zm-.224-.93c.117.173.202.383.25.612.046-.229.131-.439.248-.613h-.498z"/></g></svg>